<?xml version="1.0" encoding="utf-8"?>
<!-- Generator: Adobe Illustrator 25.0.1, SVG Export Plug-In . SVG Version: 6.00 Build 0)  -->
<svg version="1.1" id="Layer_1" xmlns="http://www.w3.org/2000/svg" xmlns:xlink="http://www.w3.org/1999/xlink" x="0px" y="0px"
	 viewBox="0 0 570.5 142.9" style="enable-background:new 0 0 570.5 142.9;" xml:space="preserve">
<style type="text/css">
	.st0{fill:#105C78;}
	.st1{fill:#00ADDC;}
	.st2{fill:#B2D33B;}
</style>
<path class="st0" d="M22,83.3v-37L0,33.6V96c0,6.4,3.4,12.4,9,15.6l54.1,31.2v-25.4L31,98.9C25.4,95.7,22,89.8,22,83.3z"/>
<path class="st0" d="M40.8,57.2v18.2c0,4.6,2.5,8.9,6.5,11.2l15.8,9.1V70L40.8,57.2z"/>
<path class="st1" d="M54.1,2.4l-13.2,7.6v25.4l13.2-7.6c5.6-3.2,12.4-3.2,18,0l31.7,18.3c0.2,0.1,0.4,0.1,0.6,0l21.7-12.5L72.1,2.4
	C66.5-0.8,59.6-0.8,54.1,2.4z"/>
<polygon class="st1" points="22,20.9 0,33.6 22,46.3 "/>
<path class="st1" d="M85.3,57.2l-15.8-9.1c-4-2.3-9-2.3-13,0l-15.8,9.1L63,70L85.3,57.2z"/>
<path class="st2" d="M104.1,46.3v37c0,6.4-3.4,12.4-9,15.6l-32.1,18.5v25.4l54.1-31.2c5.6-3.2,9-9.2,9-15.6V33.6L104.1,46.3z"/>
<path class="st2" d="M85.3,57.2L63.1,70v25.7l15.8-9.1c4-2.3,6.5-6.6,6.5-11.2V57.2z"/>
<path class="st0" d="M149.5,91.2h4.9l15.8,25.8V91.2h4.4v33.1H170L153.9,98v26.3h-4.4L149.5,91.2z"/>
<path class="st0" d="M181.4,117c0-5.4,2.2-7,6.5-7.4c2.3-0.2,5.7-0.6,9.5-0.7V105c0-1.8-0.7-2.5-2.5-2.5h-5.7
	c-1.9,0-2.6,0.7-2.6,2.5v1h-4.3v-0.9c0-4.3,2-6.4,6.4-6.4h6.8c4.3,0,6.3,2,6.3,6.4v19.2h-4.3v-3.6c-2,2.5-4.1,3.8-8.8,3.8
	C183.4,124.5,181.4,122.3,181.4,117z M197.4,118v-6.3l-9,1.2c-2,0.3-2.7,0.9-2.7,3.9s0.7,4,3.4,4C192.1,120.9,195,119.9,197.4,118
	L197.4,118z"/>
<path class="st0" d="M209.5,118v-15.5h-3.8v-3.6h3.8v-6.1h4.3v6.1h6.2v3.6h-6.1V118c0,1.8,0.7,2.6,2.6,2.6h3.5v3.7h-4.1
	C211.6,124.3,209.5,122.3,209.5,118z"/>
<path class="st0" d="M225,90.4h4.8v4.8H225V90.4z M225.2,98.8h4.3v25.6h-4.3V98.8z"/>
<path class="st0" d="M236.2,118v-12.9c0-4.3,2-6.4,6.3-6.4h7.8c4.3,0,6.3,2,6.3,6.4V118c0,4.3-2,6.3-6.3,6.3h-7.8
	C238.2,124.3,236.2,122.3,236.2,118z M249.7,120.5c1.9,0,2.6-0.8,2.6-2.6v-12.8c0-1.8-0.7-2.5-2.6-2.5h-6.7c-1.8,0-2.5,0.8-2.5,2.5
	v12.8c0,1.8,0.8,2.6,2.5,2.6H249.7z"/>
<path class="st0" d="M263.1,98.8h4.3v3.5c2.2-2.2,4.1-3.8,8.7-3.8c5.2,0,7.2,2,7.2,6.4v19.4h-4.4V105c0-1.9-0.7-2.6-3.3-2.6
	c-3-0.1-5.9,0.8-8.2,2.5v19.3h-4.3L263.1,98.8z"/>
<path class="st0" d="M289,117c0-5.4,2.2-7,6.5-7.4c2.3-0.2,5.7-0.6,9.5-0.7V105c0-1.8-0.7-2.5-2.6-2.5h-5.7c-1.9,0-2.6,0.7-2.6,2.5
	v1h-4.3v-0.9c0-4.3,2-6.4,6.3-6.4h6.8c4.3,0,6.4,2,6.4,6.4v19.2H305v-3.6c-2,2.5-4.1,3.8-8.8,3.8C291,124.5,289,122.3,289,117z
	 M305,118v-6.3l-9,1.2c-2,0.3-2.8,0.9-2.8,3.9s0.7,4,3.4,4C299.7,120.9,302.6,119.9,305,118L305,118z"/>
<path class="st0" d="M316.2,89.8h4.3v34.6h-4.3V89.8z"/>
<path class="st0" d="M339.8,91.2h4.5v29H360v4.2h-20.2V91.2z"/>
<path class="st0" d="M363.8,117c0-5.4,2.2-7,6.5-7.4c2.3-0.2,5.7-0.6,9.5-0.7V105c0-1.8-0.7-2.5-2.6-2.5h-5.7
	c-1.8,0-2.5,0.7-2.5,2.5v1h-4.3v-0.9c0-4.3,2-6.4,6.3-6.4h6.8c4.3,0,6.4,2,6.4,6.4v19.2h-4.3v-3.6c-2,2.5-4.1,3.8-8.8,3.8
	C365.9,124.5,363.8,122.3,363.8,117z M379.8,118v-6.3l-9,1.2c-2,0.3-2.8,0.9-2.8,3.9s0.7,4,3.4,4C374.5,120.9,377.5,119.9,379.8,118
	L379.8,118z"/>
<path class="st0" d="M395.2,120.7v3.6h-4.3V89.8h4.3v12.6c2.2-2.2,4.1-3.8,9-3.8c5.4,0,7.5,2,7.5,6.5v13c0,4.5-2,6.5-7.5,6.5
	C399.3,124.5,397.5,122.9,395.2,120.7z M407.4,117.9v-12.7c0-2-0.8-2.7-3.6-2.7c-3.1-0.2-6.1,0.7-8.5,2.6v13
	c2.5,1.8,5.5,2.7,8.5,2.6C406.6,120.6,407.4,119.9,407.4,117.9z"/>
<path class="st0" d="M417.6,118v-12.9c0-4.3,2-6.4,6.3-6.4h7.8c4.3,0,6.3,2,6.3,6.4V118c0,4.3-2,6.3-6.3,6.3h-7.8
	C419.6,124.3,417.6,122.3,417.6,118z M431.1,120.5c1.8,0,2.5-0.8,2.5-2.6v-12.8c0-1.8-0.7-2.5-2.5-2.5h-6.7c-1.8,0-2.6,0.8-2.6,2.5
	v12.8c0,1.8,0.8,2.6,2.6,2.6H431.1z"/>
<path class="st0" d="M444.5,98.8h4.3v3.8c2.1-2,4.1-3.8,7.9-3.8h1.9v4.1h-2.3c-3,0-5.2,1.1-7.5,2.5v18.9h-4.3V98.8z"/>
<path class="st0" d="M461.6,117c0-5.4,2.2-7,6.5-7.4c2.3-0.2,5.7-0.6,9.5-0.7V105c0-1.8-0.7-2.5-2.5-2.5h-5.7
	c-1.8,0-2.6,0.7-2.6,2.5v1h-4.3v-0.9c0-4.3,2-6.4,6.3-6.4h6.8c4.3,0,6.3,2,6.3,6.4v19.2h-4.3v-3.6c-2,2.5-4.1,3.8-8.8,3.8
	C463.6,124.5,461.6,122.3,461.6,117z M477.6,118v-6.3l-9,1.2c-2,0.3-2.7,0.9-2.7,3.9s0.7,4,3.4,4C472.3,120.9,475.2,119.9,477.6,118
	L477.6,118z"/>
<path class="st0" d="M489.8,118v-15.5H486v-3.6h3.8v-6.1h4.3v6.1h6.1v3.6h-6.1V118c0,1.8,0.7,2.6,2.6,2.6h3.5v3.7h-4.1
	C491.8,124.3,489.8,122.3,489.8,118z"/>
<path class="st0" d="M504.1,118v-12.9c0-4.3,2-6.4,6.3-6.4h7.8c4.3,0,6.3,2,6.3,6.4V118c0,4.3-2,6.3-6.3,6.3h-7.8
	C506.2,124.3,504.1,122.3,504.1,118z M517.7,120.5c1.8,0,2.5-0.8,2.5-2.6v-12.8c0-1.8-0.7-2.5-2.5-2.5H511c-1.8,0-2.6,0.8-2.6,2.5
	v12.8c0,1.8,0.8,2.6,2.6,2.6H517.7z"/>
<path class="st0" d="M531,98.8h4.3v3.8c2.1-2,4.1-3.8,7.9-3.8h1.9v4.1h-2.3c-3,0-5.2,1.1-7.5,2.5v18.9H531V98.8z"/>
<path class="st0" d="M556.4,124.3l-9.2-25.6h4.5l6.8,20.6l7-20.6h4.4l-12.1,33.1h-4.1L556.4,124.3z"/>
<path d="M149.5,14.8h28c7.6,0,11.2,3.6,11.2,11.2v7.7c0,4.4-1.9,7.1-5.2,8.5c3.9,1.4,5.9,4.2,5.9,8.6v8.9c0,7.6-3.6,11.2-11.2,11.2
	h-28.6L149.5,14.8z M176.6,38.8c3.2,0,4.4-1.2,4.4-4.3v-8.3c0-3.2-1.2-4.4-4.4-4.4h-19.4v17L176.6,38.8z M177.2,64.1
	c3.2,0,4.4-1.2,4.4-4.4v-9.6c0-3.2-1.2-4.4-4.4-4.4h-20v18.4L177.2,64.1z"/>
<path d="M200.1,27.7h7.3v6.4c3.5-3.5,6.9-6.4,13.3-6.4h3.2v7h-3.9c-5.1,0-8.8,1.8-12.7,4.2v32.1h-7.3L200.1,27.7z"/>
<path d="M230,60.3V38.4c0-7.3,3.5-10.8,10.8-10.8h13.1c7.3,0,10.8,3.5,10.8,10.8v21.9c0,7.3-3.5,10.8-10.8,10.8h-13.2
	C233.4,71.1,230,67.6,230,60.3z M253,64.6c3.1,0,4.3-1.3,4.3-4.3V38.5c0-3-1.2-4.3-4.3-4.3h-11.4c-3.1,0-4.3,1.3-4.3,4.3v21.7
	c0,3,1.3,4.3,4.3,4.3H253z"/>
<path d="M274.6,60.3V38.4c0-7.3,3.5-10.8,10.8-10.8h13.2c7.3,0,10.8,3.5,10.8,10.8v21.9c0,7.3-3.5,10.8-10.8,10.8h-13.2
	C278.1,71.1,274.6,67.6,274.6,60.3z M297.6,64.6c3.1,0,4.3-1.3,4.3-4.3V38.5c0-3-1.2-4.3-4.3-4.3h-11.4c-3,0-4.3,1.3-4.3,4.3v21.7
	c0,3,1.3,4.3,4.3,4.3H297.6z"/>
<path d="M347.3,71.1l-11.6-21.4l-8.2,9.7v11.7h-7.2V12.4h7.2V50l17.9-22.3h8.8l-13.9,16.5l15,26.9L347.3,71.1z"/>
<path d="M362.5,12.4h7.3v21.3c3.8-3.8,7-6.4,14.7-6.4c8.8,0,12.2,3.5,12.2,10.9v33h-7.4V38.4c0-3.2-1.1-4.4-5.5-4.4
	c-5-0.2-10,1.3-14,4.3v32.8h-7.3L362.5,12.4z"/>
<path d="M406.4,58.7c0-9.1,3.8-11.8,11-12.6c3.9-0.4,9.6-1,16.2-1.2v-6.6c0-3.1-1.2-4.3-4.3-4.3h-9.7c-3.1,0-4.3,1.2-4.3,4.3v1.6
	h-7.3v-1.5c0-7.3,3.5-10.8,10.8-10.8h11.5c7.3,0,10.8,3.5,10.8,10.8v32.6h-7.3v-6.2c-3.4,4.2-7,6.5-14.9,6.5
	C409.8,71.4,406.4,67.7,406.4,58.7z M433.5,60.4V49.7l-15.2,2c-3.4,0.5-4.7,1.5-4.7,6.6s1.2,6.8,5.8,6.8
	C426,65.1,429.3,63.3,433.5,60.4z"/>
<path d="M447.4,27.7h7.8l11.4,37l11.4-37h7.5l-14.7,43.4h-8.7L447.4,27.7z"/>
<path d="M498.9,51.2v9.4c0,3,1.3,4.3,4.3,4.3h10.8c3,0,4.3-1.3,4.3-4.3v-3.2h7.3v3c0,7.3-3.5,10.8-10.8,10.8h-12.6
	c-7.3,0-10.8-3.5-10.8-10.8V38.4c0-7.3,3.5-10.8,10.8-10.8h12.6c7.3,0,10.8,3.5,10.8,10.8v12.7L498.9,51.2z M498.9,38.2v7.5h19.5
	v-7.5c0-3-1.2-4.3-4.3-4.3h-10.8C500.2,33.9,498.9,35.2,498.9,38.2z"/>
<path d="M536.3,27.7h7.3v6c3.8-3.8,7-6.4,14.7-6.4c8.8,0,12.2,3.5,12.2,10.9v33h-7.4V38.4c0-3.2-1.1-4.4-5.5-4.4
	c-5-0.2-10,1.3-14,4.3v32.8h-7.3L536.3,27.7z"/>
</svg>
